<mxfile host="app.diagrams.net" agent="Mozilla/5.0 (Windows NT 10.0; Win64; x64) AppleWebKit/537.36 (KHTML, like Gecko) Chrome/131.0.0.0 Safari/537.36" version="24.8.6">
  <diagram name="Trang-1" id="2mOOjExjZHQMCh_duyX8">
    <mxGraphModel dx="1050" dy="557" grid="1" gridSize="10" guides="1" tooltips="1" connect="1" arrows="1" fold="1" page="1" pageScale="1" pageWidth="827" pageHeight="1169" math="0" shadow="0">
      <root>
        <mxCell id="0" />
        <mxCell id="1" parent="0" />
        <mxCell id="HgOfN0x5-mAtbXHmg91O-3" value="" style="edgeStyle=orthogonalEdgeStyle;rounded=0;orthogonalLoop=1;jettySize=auto;html=1;" edge="1" parent="1" source="HgOfN0x5-mAtbXHmg91O-1" target="HgOfN0x5-mAtbXHmg91O-2">
          <mxGeometry relative="1" as="geometry" />
        </mxCell>
        <mxCell id="HgOfN0x5-mAtbXHmg91O-1" value="Start" style="ellipse;whiteSpace=wrap;html=1;" vertex="1" parent="1">
          <mxGeometry x="360" width="120" height="80" as="geometry" />
        </mxCell>
        <mxCell id="HgOfN0x5-mAtbXHmg91O-7" value="" style="edgeStyle=orthogonalEdgeStyle;rounded=0;orthogonalLoop=1;jettySize=auto;html=1;" edge="1" parent="1" source="HgOfN0x5-mAtbXHmg91O-2" target="HgOfN0x5-mAtbXHmg91O-6">
          <mxGeometry relative="1" as="geometry" />
        </mxCell>
        <mxCell id="HgOfN0x5-mAtbXHmg91O-2" value="Nhập vào hai số A,B" style="shape=parallelogram;perimeter=parallelogramPerimeter;whiteSpace=wrap;html=1;fixedSize=1;" vertex="1" parent="1">
          <mxGeometry x="350" y="130" width="140" height="60" as="geometry" />
        </mxCell>
        <mxCell id="HgOfN0x5-mAtbXHmg91O-9" value="" style="edgeStyle=orthogonalEdgeStyle;rounded=0;orthogonalLoop=1;jettySize=auto;html=1;" edge="1" parent="1" source="HgOfN0x5-mAtbXHmg91O-6" target="HgOfN0x5-mAtbXHmg91O-8">
          <mxGeometry relative="1" as="geometry" />
        </mxCell>
        <mxCell id="HgOfN0x5-mAtbXHmg91O-6" value="Cộng AvàB" style="whiteSpace=wrap;html=1;" vertex="1" parent="1">
          <mxGeometry x="360" y="240" width="120" height="60" as="geometry" />
        </mxCell>
        <mxCell id="HgOfN0x5-mAtbXHmg91O-11" value="" style="edgeStyle=orthogonalEdgeStyle;rounded=0;orthogonalLoop=1;jettySize=auto;html=1;" edge="1" parent="1" source="HgOfN0x5-mAtbXHmg91O-8" target="HgOfN0x5-mAtbXHmg91O-10">
          <mxGeometry relative="1" as="geometry" />
        </mxCell>
        <mxCell id="HgOfN0x5-mAtbXHmg91O-8" value="Tổng A+B" style="shape=parallelogram;perimeter=parallelogramPerimeter;whiteSpace=wrap;html=1;fixedSize=1;" vertex="1" parent="1">
          <mxGeometry x="360" y="350" width="120" height="60" as="geometry" />
        </mxCell>
        <mxCell id="HgOfN0x5-mAtbXHmg91O-10" value="End" style="ellipse;whiteSpace=wrap;html=1;" vertex="1" parent="1">
          <mxGeometry x="360" y="460" width="120" height="80" as="geometry" />
        </mxCell>
      </root>
    </mxGraphModel>
  </diagram>
</mxfile>
